{
  "source": "C:\\Users\\Peter\\Desktop\\stuff\\MIUN\\quantitative_research\\video_compression\\videos\\BVI-HD\\BVI-HD_CDVL_videos\\ORIG\\CloudsZoom_1920x1080_60fps.mp4",
  "output": "C:\\Users\\Peter\\Desktop\\stuff\\MIUN\\quantitative_research\\video_compression\\compressed_videos\\BVI-HD\\vp9\\3\\CloudsZoom_1920x1080_60fps_vp9.webm",
  "codec": "vp9",
  "ok": "Input #0, mov,mp4,m4a,3gp,3g2,mj2, from 'C:\\Users\\Peter\\Desktop\\stuff\\MIUN\\quantitative_research\\video_compression\\videos\\BVI-HD\\BVI-HD_CDVL_videos\\ORIG\\CloudsZoom_1920x1080_60fps.mp4':\n  Metadata:\n    major_brand     : isom\n    minor_version   : 512\n    compatible_brands: isomiso2avc1mp41\n    encoder         : Lavf54.28.101\n  Duration: 00:00:05.00, start: 0.000000, bitrate: 32589 kb/s\n  Stream #0:0[0x1](und): Video: h264 (High 4:4:4 Predictive) (avc1 / 0x31637661), yuv420p(progressive), 1920x1080, 32586 kb/s, 60 fps, 60 tbr, 60 tbn (default)\n    Metadata:\n      handler_name    : VideoHandler\n      vendor_id       : [0][0][0][0]\n[out#0/webm @ 00000255558b9780] Codec AVOption b:a (set bitrate (in bits/s)) has not been used for any stream. The most likely reason is either wrong type (e.g. a video option with no video streams) or that it is a private option of some decoder which was not actually used for any stream.\nStream mapping:\n  Stream #0:0 -> #0:0 (h264 (native) -> vp9 (libvpx-vp9))\nPress [q] to stop, [?] for help\n[libvpx-vp9 @ 00000255573a4b40] v1.15.2-100-g40561f514\nOutput #0, webm, to 'C:\\Users\\Peter\\Desktop\\stuff\\MIUN\\quantitative_research\\video_compression\\compressed_videos\\BVI-HD\\vp9\\3\\CloudsZoom_1920x1080_60fps_vp9.webm':\n  Metadata:\n    major_brand     : isom\n    minor_version   : 512\n    compatible_brands: isomiso2avc1mp41\n    encoder         : Lavf62.3.100\n  Stream #0:0(und): Video: vp9, yuv420p(tv, progressive), 1920x1080, q=2-31, 3000 kb/s, 60 fps, 1k tbn (default)\n    Metadata:\n      encoder         : Lavc62.11.100 libvpx-vp9\n      handler_name    : VideoHandler\n      vendor_id       : [0][0][0][0]\n    Side data:\n      cpb: bitrate max/min/avg: 0/0/0 buffer size: 3000000 vbv_delay: N/A\nframe=    9 fps=0.0 q=29.0 size=       1KiB time=00:00:00.15 bitrate=  33.8kbits/s speed=0.291x elapsed=0:00:00.51    \nframe=   19 fps= 18 q=14.0 size=       1KiB time=00:00:00.31 bitrate=  16.0kbits/s speed=0.308x elapsed=0:00:01.02    \nframe=   26 fps= 17 q=13.0 size=       1KiB time=00:00:00.43 bitrate=  11.7kbits/s speed=0.281x elapsed=0:00:01.54    \nframe=   35 fps= 17 q=13.0 size=       1KiB time=00:00:00.58 bitrate=   8.7kbits/s speed=0.283x elapsed=0:00:02.06    \nframe=   44 fps= 17 q=12.0 size=       1KiB time=00:00:00.73 bitrate=   6.9kbits/s speed=0.285x elapsed=0:00:02.57    \nframe=   53 fps= 17 q=14.0 size=       1KiB time=00:00:00.88 bitrate=   5.7kbits/s speed=0.284x elapsed=0:00:03.10    \nframe=   62 fps= 17 q=13.0 size=       1KiB time=00:00:01.03 bitrate=   4.9kbits/s speed=0.285x elapsed=0:00:03.62    \nframe=   70 fps= 17 q=16.0 size=       1KiB time=00:00:01.16 bitrate=   4.3kbits/s speed=0.281x elapsed=0:00:04.15    \nframe=   79 fps= 17 q=19.0 size=       1KiB time=00:00:01.31 bitrate=   3.8kbits/s speed=0.282x elapsed=0:00:04.67    \nframe=   88 fps= 17 q=18.0 size=       1KiB time=00:00:01.46 bitrate=   3.5kbits/s speed=0.282x elapsed=0:00:05.19    \nframe=   97 fps= 17 q=4.0 size=       1KiB time=00:00:01.61 bitrate=   3.1kbits/s speed=0.281x elapsed=0:00:05.74    \nframe=  107 fps= 17 q=19.0 size=       1KiB time=00:00:01.78 bitrate=   2.8kbits/s speed=0.284x elapsed=0:00:06.27    \nframe=  116 fps= 17 q=19.0 size=       1KiB time=00:00:01.93 bitrate=   2.6kbits/s speed=0.284x elapsed=0:00:06.81    \nframe=  125 fps= 17 q=19.0 size=       1KiB time=00:00:02.08 bitrate=   2.4kbits/s speed=0.284x elapsed=0:00:07.33    \nframe=  132 fps= 17 q=19.0 size=     512KiB time=00:00:02.20 bitrate=1906.5kbits/s speed=0.28x elapsed=0:00:07.84    \nframe=  141 fps= 17 q=16.0 size=     512KiB time=00:00:02.35 bitrate=1784.8kbits/s speed=0.281x elapsed=0:00:08.35    \nframe=  151 fps= 17 q=14.0 size=     512KiB time=00:00:02.51 bitrate=1666.6kbits/s speed=0.284x elapsed=0:00:08.87    \nframe=  160 fps= 17 q=13.0 size=     512KiB time=00:00:02.66 bitrate=1572.9kbits/s speed=0.283x elapsed=0:00:09.41    \nframe=  168 fps= 17 q=9.0 size=     512KiB time=00:00:02.80 bitrate=1498.0kbits/s speed=0.282x elapsed=0:00:09.91    \nframe=  176 fps= 17 q=4.0 size=     512KiB time=00:00:02.93 bitrate=1429.9kbits/s speed=0.281x elapsed=0:00:10.44    \nframe=  185 fps= 17 q=9.0 size=     512KiB time=00:00:03.08 bitrate=1360.3kbits/s speed=0.281x elapsed=0:00:10.96    \nframe=  193 fps= 17 q=16.0 size=     512KiB time=00:00:03.21 bitrate=1303.9kbits/s speed=0.28x elapsed=0:00:11.49    \nframe=  202 fps= 17 q=17.0 size=     512KiB time=00:00:03.36 bitrate=1245.8kbits/s speed=0.28x elapsed=0:00:12.01    \nframe=  210 fps= 17 q=16.0 size=     512KiB time=00:00:03.50 bitrate=1198.4kbits/s speed=0.279x elapsed=0:00:12.53    \nframe=  218 fps= 17 q=9.0 size=     512KiB time=00:00:03.63 bitrate=1154.4kbits/s speed=0.278x elapsed=0:00:13.04    \nframe=  225 fps= 17 q=10.0 size=     512KiB time=00:00:03.75 bitrate=1118.5kbits/s speed=0.276x elapsed=0:00:13.56    \nframe=  232 fps= 16 q=18.0 size=     512KiB time=00:00:03.86 bitrate=1084.7kbits/s speed=0.274x elapsed=0:00:14.09    \nframe=  237 fps= 16 q=18.0 size=     512KiB time=00:00:03.95 bitrate=1061.8kbits/s speed=0.27x elapsed=0:00:14.65    \nframe=  244 fps= 16 q=10.0 size=     512KiB time=00:00:04.06 bitrate=1031.4kbits/s speed=0.268x elapsed=0:00:15.17    \nframe=  252 fps= 16 q=19.0 size=     512KiB time=00:00:04.20 bitrate= 998.6kbits/s speed=0.268x elapsed=0:00:15.69    \nframe=  259 fps= 16 q=16.0 size=    1280KiB time=00:00:04.31 bitrate=2429.1kbits/s speed=0.266x elapsed=0:00:16.24    \nframe=  268 fps= 16 q=9.0 size=    1280KiB time=00:00:04.45 bitrate=2356.4kbits/s speed=0.265x elapsed=0:00:16.76    \nframe=  274 fps= 16 q=15.0 size=    1280KiB time=00:00:04.55 bitrate=2304.6kbits/s speed=0.263x elapsed=0:00:17.31    \nframe=  276 fps= 15 q=17.0 size=    1280KiB time=00:00:04.60 bitrate=2279.5kbits/s speed=0.257x elapsed=0:00:17.87    \nframe=  276 fps= 15 q=17.0 size=    1280KiB time=00:00:04.60 bitrate=2279.5kbits/s speed=0.25x elapsed=0:00:18.39    \nframe=  276 fps= 15 q=17.0 size=    1280KiB time=00:00:04.60 bitrate=2279.5kbits/s speed=0.243x elapsed=0:00:18.90    \nframe=  276 fps= 14 q=17.0 size=    1280KiB time=00:00:04.60 bitrate=2279.5kbits/s speed=0.237x elapsed=0:00:19.42    \n[out#0/webm @ 00000255558b9780] video:1825KiB audio:0KiB subtitle:0KiB other streams:0KiB global headers:0KiB muxing overhead: 0.152310%\nframe=  300 fps= 15 q=16.0 Lsize=    1828KiB time=00:00:05.00 bitrate=2994.3kbits/s speed=0.252x elapsed=0:00:19.84    \n",
  "seconds": 20.085309743881226,
  "probe_out": {}
}